<svg width="1821.302" height="229.203" viewBox="0 0 1821.302 229.203" xmlns="http://www.w3.org/2000/svg"><g id="svgGroup" stroke-linecap="round" fill-rule="evenodd" font-size="9pt" stroke="#ffffff" stroke-width="0.25mm" fill="#ffffff" style="stroke:#ffffff;stroke-width:0.25mm;fill:#ffffff"><path d="M 194.4 218.1 L 168.3 228.6 L 144.9 168.6 L 47.7 168.6 L 24.3 228 L 0 218.1 L 82.2 15.6 L 113.4 15.6 L 194.4 218.1 Z M 381.9 213 L 393.3 190.5 A 55.671 55.671 0 0 0 402.731 196.878 Q 407.359 199.392 412.863 201.419 A 90.992 90.992 0 0 0 412.95 201.45 A 72.219 72.219 0 0 0 435.783 205.762 A 82.394 82.394 0 0 0 438.3 205.8 Q 455.1 205.8 463.65 200.25 A 22.348 22.348 0 0 0 468.25 196.372 A 15.157 15.157 0 0 0 472.2 186 A 21.369 21.369 0 0 0 471.258 179.558 A 18.636 18.636 0 0 0 469.05 174.9 Q 466.033 170.303 458.201 165.844 A 66.911 66.911 0 0 0 457.5 165.45 Q 449.1 160.8 433.2 155.4 Q 411.3 147.9 400.35 137.55 A 33.973 33.973 0 0 1 390.469 119.562 A 50.381 50.381 0 0 1 389.4 108.9 A 36.36 36.36 0 0 1 401.244 81.855 A 52.388 52.388 0 0 1 405.15 78.45 A 53.296 53.296 0 0 1 423.258 69.311 Q 430.928 67.035 440.124 66.324 A 112.582 112.582 0 0 1 448.8 66 A 122.381 122.381 0 0 1 462.137 66.693 Q 469.284 67.477 475.5 69.15 A 116.309 116.309 0 0 1 487.903 73.216 A 93.332 93.332 0 0 1 496.5 77.1 L 489 99.3 Q 480.9 94.5 470.55 91.5 A 75.072 75.072 0 0 0 457.1 88.958 A 95.511 95.511 0 0 0 447.6 88.5 A 61.895 61.895 0 0 0 438.79 89.085 Q 434.306 89.732 430.672 91.093 A 25.527 25.527 0 0 0 423.9 94.8 A 27.966 27.966 0 0 0 419.827 98.621 Q 415.8 103.312 415.8 108.6 A 14.762 14.762 0 0 0 420.285 119.255 A 21.247 21.247 0 0 0 422.1 120.9 A 29.639 29.639 0 0 0 426 123.507 Q 432.975 127.5 446.7 132 A 203.259 203.259 0 0 1 461.886 137.694 Q 479.668 145.252 488.1 153.9 A 40.791 40.791 0 0 1 499.753 181.639 A 53.685 53.685 0 0 1 499.8 183.9 Q 499.8 204.145 484.047 216.165 A 49.855 49.855 0 0 1 482.85 217.05 Q 465.9 229.2 437.4 229.2 A 119.969 119.969 0 0 1 419.816 227.968 A 92.844 92.844 0 0 1 405.45 224.7 A 92.65 92.65 0 0 1 393.929 220.246 Q 387.988 217.453 383.243 214.007 A 54.687 54.687 0 0 1 381.9 213 Z M 1249.8 225.6 L 1222.8 225.6 L 1222.8 98.7 L 1198.8 98.7 L 1198.8 75.3 L 1222.8 75.3 L 1222.8 57 A 76.484 76.484 0 0 1 1224.678 39.547 Q 1228.001 25.357 1237.206 15.609 A 49.151 49.151 0 0 1 1237.5 15.3 A 49.101 49.101 0 0 1 1268.713 0.374 A 67.388 67.388 0 0 1 1275.9 0 A 89.947 89.947 0 0 1 1286.431 0.586 Q 1292.414 1.292 1297.5 2.85 Q 1306.8 5.7 1315.2 9.9 L 1307.1 32.7 Q 1300.8 29.4 1293.6 26.7 A 42.517 42.517 0 0 0 1282.733 24.238 A 52.068 52.068 0 0 0 1277.7 24 A 32.407 32.407 0 0 0 1268.612 25.214 A 24.874 24.874 0 0 0 1257.45 31.95 A 25.385 25.385 0 0 0 1251.609 42.057 Q 1249.8 47.76 1249.8 55.2 L 1249.8 75.3 L 1296 75.3 L 1296 98.7 L 1249.8 98.7 L 1249.8 225.6 Z M 1106.7 171.9 L 1106.7 98.7 L 1079.7 98.7 L 1079.7 75.3 L 1107.3 75.3 L 1113 26.1 L 1133.7 26.1 L 1133.7 75.3 L 1176.9 75.3 L 1176.9 98.7 L 1133.7 98.7 L 1133.7 174 A 64.676 64.676 0 0 0 1134.203 182.389 Q 1135.405 191.537 1139.471 196.592 A 16.669 16.669 0 0 0 1141.05 198.3 Q 1148.4 205.2 1158.6 205.2 Q 1166.1 205.2 1172.85 202.8 Q 1179.6 200.4 1185.3 197.1 L 1192.8 218.7 A 55.638 55.638 0 0 1 1187.945 221.269 Q 1185.54 222.404 1182.703 223.525 A 130.095 130.095 0 0 1 1176.6 225.75 Q 1166.4 229.2 1155.3 229.2 A 54.98 54.98 0 0 1 1139.754 227.112 A 41.802 41.802 0 0 1 1119.75 214.35 Q 1108.823 201.916 1107.045 180.542 A 104.332 104.332 0 0 1 1106.7 171.9 Z M 657.3 225.6 L 628.8 225.6 L 628.8 16.2 Q 641.1 14.7 655.95 13.95 A 602.419 602.419 0 0 1 682.741 13.212 A 665.852 665.852 0 0 1 686.7 13.2 Q 712.8 13.2 731.1 21.45 A 73.819 73.819 0 0 1 746.345 30.536 A 58.121 58.121 0 0 1 759 44.1 A 57.441 57.441 0 0 1 768.538 74.148 A 70.19 70.19 0 0 1 768.6 77.1 Q 768.6 99.6 757.5 115.2 Q 746.4 130.8 726.6 139.05 A 104.323 104.323 0 0 1 702.332 145.721 A 141.582 141.582 0 0 1 680.7 147.3 A 312.069 312.069 0 0 1 667.095 147.016 A 248.786 248.786 0 0 1 657.3 146.4 L 657.3 225.6 Z M 197.4 211.8 L 211.2 189.9 A 50.575 50.575 0 0 0 223.411 199.248 A 58.29 58.29 0 0 0 225.6 200.4 A 39.342 39.342 0 0 0 237.225 204.18 A 35.823 35.823 0 0 0 242.7 204.6 A 32.222 32.222 0 0 0 253.222 202.957 A 26.809 26.809 0 0 0 265.5 194.25 A 29.847 29.847 0 0 0 270.196 185.688 Q 273.9 175.636 273.9 159.3 L 273.9 15.6 L 302.4 15.6 L 302.4 156.3 A 142.038 142.038 0 0 1 301.119 176.094 Q 297.873 199.087 286.407 211.577 A 43.618 43.618 0 0 1 286.2 211.8 A 53.789 53.789 0 0 1 250.823 228.856 A 74.041 74.041 0 0 1 243.6 229.2 A 70.328 70.328 0 0 1 219.367 225.052 A 67.214 67.214 0 0 1 217.65 224.4 A 68.482 68.482 0 0 1 205.884 218.454 A 54.55 54.55 0 0 1 197.4 211.8 Z M 1497.6 176.7 L 1497.6 3.6 L 1524.6 3.6 L 1524.6 174 Q 1524.6 183.722 1527.031 190.419 A 23.92 23.92 0 0 0 1531.35 198 Q 1538.1 205.8 1550.1 205.8 Q 1555.8 205.8 1561.35 204.45 Q 1566.098 203.296 1569.638 201.811 A 35.827 35.827 0 0 0 1570.8 201.3 L 1577.4 223.2 A 54.452 54.452 0 0 1 1572.592 225.051 Q 1570.203 225.852 1567.464 226.569 A 104.935 104.935 0 0 1 1564.05 227.4 Q 1556.1 229.2 1546.5 229.2 A 62.587 62.587 0 0 1 1531.829 227.539 A 52.633 52.633 0 0 1 1521.6 223.95 A 38.049 38.049 0 0 1 1505.626 209.654 A 47.568 47.568 0 0 1 1504.05 207 A 47.265 47.265 0 0 1 1499.641 195.442 Q 1498.302 190.009 1497.841 183.635 A 96.316 96.316 0 0 1 1497.6 176.7 Z M 1002 225.6 L 975 225.6 L 975 69.6 L 1001.1 69.6 L 1001.1 103.5 Q 1005 93.6 1011.6 85.05 Q 1018.2 76.5 1028.1 71.25 A 44.451 44.451 0 0 1 1042.139 66.678 A 58.378 58.378 0 0 1 1051.2 66 Q 1055.7 66 1060.2 66.45 A 56.917 56.917 0 0 1 1063.364 66.851 Q 1064.864 67.087 1066.146 67.388 A 26.45 26.45 0 0 1 1067.7 67.8 L 1059.6 95.7 A 29.288 29.288 0 0 0 1053.164 93.864 Q 1049.878 93.3 1046.1 93.3 Q 1035 93.3 1024.95 99.6 A 40.205 40.205 0 0 0 1014.533 109.191 Q 1011.171 113.532 1008.45 119.1 A 57.962 57.962 0 0 0 1004.041 132.029 Q 1002.654 138.28 1002.209 145.583 A 117.269 117.269 0 0 0 1002 152.7 L 1002 225.6 Z M 835.384 225.183 A 81.643 81.643 0 0 0 861.3 229.2 A 92.178 92.178 0 0 0 868.124 228.951 A 75.771 75.771 0 0 0 901.05 219 Q 918.6 208.8 928.8 190.35 A 78.765 78.765 0 0 0 936.759 168.927 A 102.552 102.552 0 0 0 939 147 A 103.626 103.626 0 0 0 937.545 129.275 A 77.384 77.384 0 0 0 928.65 103.95 Q 918.3 85.8 900.75 75.9 A 74.545 74.545 0 0 0 886.826 69.819 A 83.213 83.213 0 0 0 861.3 66 Q 839.4 66 821.7 75.9 Q 804 85.8 793.8 104.1 A 78.068 78.068 0 0 0 785.552 126.871 A 105.018 105.018 0 0 0 783.6 147.6 A 104.461 104.461 0 0 0 784.395 160.661 A 82.352 82.352 0 0 0 793.65 190.05 Q 803.7 208.5 821.4 218.85 A 73.677 73.677 0 0 0 835.384 225.183 Z M 1359.484 225.183 A 81.643 81.643 0 0 0 1385.4 229.2 A 92.178 92.178 0 0 0 1392.224 228.951 A 75.771 75.771 0 0 0 1425.15 219 Q 1442.7 208.8 1452.9 190.35 A 78.765 78.765 0 0 0 1460.859 168.927 A 102.552 102.552 0 0 0 1463.1 147 A 103.626 103.626 0 0 0 1461.645 129.275 A 77.384 77.384 0 0 0 1452.75 103.95 Q 1442.4 85.8 1424.85 75.9 A 74.545 74.545 0 0 0 1410.926 69.819 A 83.213 83.213 0 0 0 1385.4 66 Q 1363.5 66 1345.8 75.9 Q 1328.1 85.8 1317.9 104.1 A 78.068 78.068 0 0 0 1309.652 126.871 A 105.018 105.018 0 0 0 1307.7 147.6 A 104.461 104.461 0 0 0 1308.495 160.661 A 82.352 82.352 0 0 0 1317.75 190.05 Q 1327.8 208.5 1345.5 218.85 A 73.677 73.677 0 0 0 1359.484 225.183 Z M 1717.684 225.183 A 81.643 81.643 0 0 0 1743.6 229.2 A 92.178 92.178 0 0 0 1750.424 228.951 A 75.771 75.771 0 0 0 1783.35 219 Q 1800.9 208.8 1811.1 190.35 A 78.765 78.765 0 0 0 1819.059 168.927 A 102.552 102.552 0 0 0 1821.3 147 A 103.626 103.626 0 0 0 1819.845 129.275 A 77.384 77.384 0 0 0 1810.95 103.95 Q 1800.6 85.8 1783.05 75.9 A 74.545 74.545 0 0 0 1769.126 69.819 A 83.213 83.213 0 0 0 1743.6 66 Q 1721.7 66 1704 75.9 Q 1686.3 85.8 1676.1 104.1 A 78.068 78.068 0 0 0 1667.852 126.871 A 105.018 105.018 0 0 0 1665.9 147.6 A 104.461 104.461 0 0 0 1666.695 160.661 A 82.352 82.352 0 0 0 1675.95 190.05 Q 1686 208.5 1703.7 218.85 A 73.677 73.677 0 0 0 1717.684 225.183 Z M 1629.9 225.6 L 1602.9 225.6 L 1602.9 69.6 L 1629.9 69.6 L 1629.9 225.6 Z M 861.3 205.2 A 56.224 56.224 0 0 0 876.978 203.128 A 42.002 42.002 0 0 0 898.2 189.15 A 56.407 56.407 0 0 0 909.658 164.881 A 81.314 81.314 0 0 0 911.4 147.6 A 64.129 64.129 0 0 0 907.726 125.742 A 60.042 60.042 0 0 0 904.8 118.95 Q 898.2 105.9 886.95 97.95 Q 875.7 90 861.3 90 A 57.747 57.747 0 0 0 845.622 92.015 A 42.111 42.111 0 0 0 824.4 105.6 A 53.634 53.634 0 0 0 813.379 127.721 Q 811.404 135.694 811.219 145.05 A 98.609 98.609 0 0 0 811.2 147 Q 811.2 162.6 817.8 175.95 A 58.311 58.311 0 0 0 828.39 191.07 A 52.882 52.882 0 0 0 835.65 197.25 Q 846.9 205.2 861.3 205.2 Z M 1385.4 205.2 A 56.224 56.224 0 0 0 1401.078 203.128 A 42.002 42.002 0 0 0 1422.3 189.15 A 56.407 56.407 0 0 0 1433.758 164.881 A 81.314 81.314 0 0 0 1435.5 147.6 A 64.129 64.129 0 0 0 1431.826 125.742 A 60.042 60.042 0 0 0 1428.9 118.95 Q 1422.3 105.9 1411.05 97.95 Q 1399.8 90 1385.4 90 A 57.747 57.747 0 0 0 1369.722 92.015 A 42.111 42.111 0 0 0 1348.5 105.6 A 53.634 53.634 0 0 0 1337.479 127.721 Q 1335.504 135.694 1335.319 145.05 A 98.609 98.609 0 0 0 1335.3 147 Q 1335.3 162.6 1341.9 175.95 A 58.311 58.311 0 0 0 1352.49 191.07 A 52.882 52.882 0 0 0 1359.75 197.25 Q 1371 205.2 1385.4 205.2 Z M 1743.6 205.2 A 56.224 56.224 0 0 0 1759.278 203.128 A 42.002 42.002 0 0 0 1780.5 189.15 A 56.407 56.407 0 0 0 1791.958 164.881 A 81.314 81.314 0 0 0 1793.7 147.6 A 64.129 64.129 0 0 0 1790.026 125.742 A 60.042 60.042 0 0 0 1787.1 118.95 Q 1780.5 105.9 1769.25 97.95 Q 1758 90 1743.6 90 A 57.747 57.747 0 0 0 1727.922 92.015 A 42.111 42.111 0 0 0 1706.7 105.6 A 53.634 53.634 0 0 0 1695.679 127.721 Q 1693.704 135.694 1693.519 145.05 A 98.609 98.609 0 0 0 1693.5 147 Q 1693.5 162.6 1700.1 175.95 A 58.311 58.311 0 0 0 1710.69 191.07 A 52.882 52.882 0 0 0 1717.95 197.25 Q 1729.2 205.2 1743.6 205.2 Z M 657.3 38.4 L 657.3 122.1 A 143.905 143.905 0 0 0 661.195 122.529 Q 662.941 122.699 664.893 122.855 A 288.766 288.766 0 0 0 669 123.15 Q 675.9 123.6 684.3 123.6 A 95.493 95.493 0 0 0 700.441 122.324 Q 709.077 120.84 715.99 117.633 A 45.663 45.663 0 0 0 725.7 111.6 Q 740.4 99.6 740.4 79.5 A 43.355 43.355 0 0 0 738.117 65.12 A 36.407 36.407 0 0 0 726.3 48.6 A 46.387 46.387 0 0 0 711.058 40.61 Q 700.373 37.2 686.1 37.2 A 393.375 393.375 0 0 0 676.327 37.318 A 329.814 329.814 0 0 0 670.8 37.5 A 273.822 273.822 0 0 0 662.152 37.993 A 225.12 225.12 0 0 0 657.3 38.4 Z M 96.3 43.8 L 56.7 144.6 L 135.6 144.6 L 96.3 43.8 Z M 359.7 82.2 L 338.4 82.2 L 336 15.6 L 362.1 15.6 L 359.7 82.2 Z M 1603.311 37.465 A 17.918 17.918 0 0 0 1616.4 42.9 A 24.526 24.526 0 0 0 1620.889 42.508 A 16.942 16.942 0 0 0 1630.2 37.65 A 17.331 17.331 0 0 0 1634.474 30.25 A 22.532 22.532 0 0 0 1635.3 24 A 21.78 21.78 0 0 0 1635.299 23.757 A 18.181 18.181 0 0 0 1629.75 10.65 A 22.184 22.184 0 0 0 1629.576 10.478 A 18.176 18.176 0 0 0 1616.4 5.1 A 24.791 24.791 0 0 0 1611.433 5.574 A 16.984 16.984 0 0 0 1602.6 10.2 A 16.763 16.763 0 0 0 1598.188 18.097 A 23.962 23.962 0 0 0 1597.5 24 A 17.975 17.975 0 0 0 1598.976 31.256 A 19.93 19.93 0 0 0 1603.05 37.2 A 22.404 22.404 0 0 0 1603.311 37.465 Z" vector-effect="non-scaling-stroke"/></g></svg>